<?xml version="1.0" standalone="no"?>
<!DOCTYPE svg PUBLIC "-//W3C//DTD SVG 20010904//EN"
 "http://www.w3.org/TR/2001/REC-SVG-20010904/DTD/svg10.dtd">
<svg version="1.0" xmlns="http://www.w3.org/2000/svg"
 width="437.000000pt" height="310.000000pt" viewBox="0 0 437.000000 310.000000"
 preserveAspectRatio="xMidYMid meet">

<g transform="translate(0.000000,310.000000) scale(0.100000,-0.100000)"
fill="#FFFFFF" stroke="none">
<path d="M852 2867 l-52 -52 -2 -710 -3 -710 -58 118 -57 117 -193 0 -193 0
-72 -73 -72 -72 0 -513 0 -512 124 0 123 0 5 90 c5 74 11 102 36 153 98 199
337 285 537 193 149 -68 237 -203 239 -368 l1 -68 354 0 353 0 -6 23 c-14 45
-18 154 -7 212 30 164 160 319 312 372 68 23 164 32 237 22 81 -11 210 -72
264 -124 84 -82 139 -193 153 -309 l7 -56 59 0 59 0 0 -73 0 -73 49 -48 50
-49 218 17 c120 9 290 20 378 26 88 6 216 14 285 20 69 5 142 10 163 10 l38 0
-3 52 -3 53 -497 3 -498 2 0 760 0 760 -90 0 -90 0 0 380 0 380 -192 -2 -193
-3 -3 -772 -2 -773 -40 0 -40 0 0 191 0 192 -107 286 c-59 157 -159 425 -223
596 l-116 310 -49 37 -50 38 -540 0 -541 0 -52 -53z m1072 -159 c8 -13 105
-265 215 -560 l201 -536 0 -171 0 -171 -109 0 c-114 0 -119 1 -593 132 -32 9
-38 15 -46 52 -32 137 -136 524 -147 546 -7 14 -26 32 -41 40 -26 14 -119 18
-131 6 -4 -3 1 -88 11 -188 31 -334 20 -291 84 -339 32 -23 59 -44 61 -46 12
-9 -9 -12 -35 -4 -16 5 -67 19 -114 31 -47 12 -105 28 -130 35 -25 8 -71 21
-102 30 l-58 16 0 562 c0 425 3 566 12 575 9 9 125 12 460 12 l448 0 14 -22z"/>
<path d="M2293 995 c-186 -50 -303 -201 -303 -390 0 -222 171 -396 390 -396
92 0 118 5 191 42 75 37 141 105 181 187 31 62 33 74 33 167 0 92 -3 106 -32
167 -53 112 -148 191 -268 222 -72 19 -123 19 -192 1z m177 -225 c60 -31 93
-81 98 -149 8 -113 -67 -196 -177 -196 -68 0 -114 24 -154 81 -49 70 -38 173
25 231 60 56 139 68 208 33z"/>
<path d="M736 838 c-51 -9 -136 -58 -172 -99 -111 -123 -103 -320 16 -439 129
-129 343 -124 465 11 58 64 79 121 79 214 1 96 -23 157 -87 223 -52 54 -96 77
-172 91 -66 12 -62 12 -129 -1z m142 -185 c99 -57 96 -209 -5 -257 -71 -34
-153 -10 -193 56 -56 93 13 218 122 218 25 0 60 -8 76 -17z"/>
</g>
</svg>
