<?xml version="1.0" standalone="no"?>
<!DOCTYPE svg PUBLIC "-//W3C//DTD SVG 20010904//EN"
 "http://www.w3.org/TR/2001/REC-SVG-20010904/DTD/svg10.dtd">
<svg version="1.0" xmlns="http://www.w3.org/2000/svg"
 width="1022.000000pt" height="857.000000pt" viewBox="0 0 1022.000000 857.000000"
 preserveAspectRatio="xMidYMid meet">

<g transform="translate(0.000000,857.000000) scale(0.100000,-0.100000)"
fill="#FFFFFF" stroke="none">
<path d="M4860 8479 c-468 -53 -926 -275 -1265 -614 -567 -566 -767 -1404
-514 -2160 46 -140 155 -366 229 -479 117 -179 339 -418 503 -541 36 -27 66
-52 66 -55 1 -3 -50 -25 -112 -50 -247 -98 -578 -282 -795 -442 -204 -151
-447 -375 -609 -563 -87 -101 -260 -337 -328 -446 -234 -375 -407 -832 -479
-1261 -47 -274 -51 -354 -51 -898 l0 -515 28 -56 c32 -66 95 -123 168 -150 48
-18 146 -19 3409 -19 l3359 0 57 21 c67 25 137 91 168 159 20 44 21 59 21 560
0 544 -4 624 -51 898 -57 345 -168 675 -335 1002 -295 578 -745 1068 -1302
1417 -148 93 -422 232 -574 293 -62 25 -113 47 -113 50 0 3 30 28 67 55 99 74
275 246 368 360 111 135 174 234 256 400 194 398 257 815 189 1255 -105 685
-554 1282 -1196 1590 -182 88 -460 165 -676 189 -112 13 -378 12 -488 0z m372
-589 c209 -17 363 -59 553 -150 448 -216 771 -652 846 -1145 6 -44 12 -145 12
-225 0 -204 -28 -360 -97 -543 -135 -360 -430 -675 -784 -838 -180 -83 -331
-123 -532 -139 -266 -22 -525 25 -772 139 -354 163 -649 478 -784 838 -69 183
-97 339 -97 543 0 254 49 463 158 680 238 472 716 797 1238 840 134 11 131 11
259 0z m223 -3665 c353 -39 648 -127 990 -294 610 -299 1083 -778 1384 -1401
88 -183 132 -302 187 -508 77 -291 104 -529 104 -929 l0 -273 -3010 0 -3010 0
0 273 c0 400 27 638 104 929 59 221 101 330 206 543 423 857 1204 1448 2155
1632 225 43 639 56 890 28z"/>
<path d="M2720 7754 c-14 -2 -59 -9 -99 -15 -477 -71 -918 -357 -1196 -774
-144 -218 -220 -414 -270 -705 -21 -116 -23 -360 -6 -485 48 -343 189 -650
423 -922 l78 -91 -122 -68 c-872 -480 -1417 -1326 -1488 -2309 -7 -91 -10
-305 -8 -495 3 -325 4 -337 26 -385 30 -65 85 -122 147 -151 49 -24 54 -24
382 -24 l331 0 6 78 c16 210 29 334 42 407 7 44 14 86 14 93 0 9 -42 12 -177
12 l-176 0 6 237 c10 356 40 532 134 793 218 605 690 1091 1290 1329 100 39
270 94 333 106 86 17 167 82 212 168 31 61 32 175 0 235 -35 66 -91 115 -178
157 -354 168 -605 488 -670 855 -17 100 -19 301 -4 397 62 376 328 712 687
869 l76 33 42 103 c69 171 147 316 245 453 31 44 60 86 64 93 5 9 -8 12 -56
11 -35 -1 -74 -3 -88 -5z"/>
<path d="M7350 7755 c0 -4 26 -44 58 -88 101 -143 210 -347 266 -493 l27 -71
132 -67 c212 -106 358 -238 476 -429 176 -286 219 -638 115 -956 -55 -169
-141 -315 -258 -440 -96 -101 -265 -220 -399 -279 -57 -25 -112 -75 -145 -131
-24 -40 -27 -56 -27 -131 0 -95 11 -123 73 -192 34 -38 139 -98 171 -98 26 0
227 -63 323 -101 241 -96 420 -206 653 -400 336 -280 607 -734 711 -1190 38
-169 52 -298 60 -541 l7 -228 -176 0 c-135 0 -177 -3 -177 -12 0 -7 9 -80 20
-163 11 -82 23 -210 27 -283 l6 -133 341 3 341 3 49 25 c27 14 66 44 87 68 68
78 69 86 69 541 0 485 -15 658 -80 911 -156 609 -493 1137 -975 1523 -128 102
-299 216 -442 292 -62 33 -113 63 -113 67 0 4 30 41 68 83 281 319 442 735
442 1144 0 625 -311 1181 -850 1518 -173 108 -393 190 -612 228 -101 18 -268
31 -268 20z"/>
</g>
</svg>
