<?xml version="1.0" standalone="no"?>
<!DOCTYPE svg PUBLIC "-//W3C//DTD SVG 20010904//EN"
 "http://www.w3.org/TR/2001/REC-SVG-20010904/DTD/svg10.dtd">
<svg version="1.0" xmlns="http://www.w3.org/2000/svg"
 width="582.000000pt" height="574.000000pt" viewBox="0 0 582.000000 574.000000"
 preserveAspectRatio="xMidYMid meet">

<g transform="translate(0.000000,574.000000) scale(0.100000,-0.100000)"
fill="#FFFFFF" stroke="none">
<path d="M3065 5495 c-155 -25 -314 -70 -454 -127 l-53 -23 7 -100 7 -101 -59
-32 c-32 -17 -76 -43 -99 -56 l-41 -25 -89 53 -89 53 -75 -60 c-95 -77 -229
-211 -303 -305 l-58 -72 52 -90 51 -90 -42 -72 c-24 -40 -49 -83 -57 -95 -13
-21 -20 -23 -116 -23 l-103 0 -13 -32 c-65 -164 -123 -377 -137 -504 l-6 -61
88 -50 89 -50 0 -107 c0 -59 -2 -111 -5 -115 -3 -5 -24 -18 -47 -30 -24 -12
-43 -25 -43 -29 0 -4 33 -27 72 -52 136 -86 291 -265 359 -417 52 -113 89
-258 89 -345 0 -33 5 -41 37 -62 50 -32 1169 -674 1197 -687 17 -8 38 -3 101
25 219 96 458 110 700 41 32 -9 76 -25 97 -36 20 -10 42 -19 48 -19 5 0 10 22
10 50 0 41 4 52 23 63 12 8 55 33 94 56 l73 43 62 -36 c35 -20 75 -43 90 -53
26 -16 27 -16 75 22 116 93 203 178 294 284 l97 113 -31 52 c-17 28 -40 69
-53 91 l-22 40 52 90 53 90 105 3 105 3 21 52 c57 138 114 342 127 452 4 33 9
67 11 77 4 12 -18 29 -83 66 l-88 49 -3 114 -2 114 90 49 c65 36 89 54 86 65
-2 9 -7 43 -11 76 -12 112 -73 332 -125 453 l-22 52 -103 0 -103 0 -55 95 -55
94 49 86 c27 47 49 88 49 92 0 16 -101 136 -194 231 -88 90 -221 202 -240 202
-3 0 -44 -22 -92 -49 l-86 -50 -49 30 c-26 17 -68 41 -91 53 l-43 23 -3 105
-3 106 -52 22 c-125 54 -308 105 -451 125 l-88 12 -37 -58 c-20 -32 -44 -72
-53 -89 l-17 -31 -112 3 -113 3 -45 84 c-25 47 -50 85 -56 87 -5 1 -46 -4 -90
-11z m490 -746 c333 -46 662 -254 848 -538 142 -215 207 -432 207 -692 0 -255
-66 -476 -207 -687 -349 -524 -1036 -701 -1600 -412 -278 143 -497 395 -601
692 -194 551 28 1169 529 1472 131 79 277 134 429 161 93 16 293 19 395 4z"/>
<path d="M3185 4479 c-467 -99 -785 -488 -785 -959 0 -199 57 -384 171 -551
178 -263 477 -421 799 -421 472 0 866 325 959 791 63 315 -37 640 -269 871
-231 231 -567 334 -875 269z m350 -433 c28 -9 78 -32 112 -53 159 -97 256
-250 270 -423 27 -355 -272 -638 -625 -589 -362 50 -573 450 -411 778 71 144
218 263 369 298 68 16 216 10 285 -11z"/>
<path d="M845 3194 c-11 -3 -62 -14 -112 -25 l-93 -20 0 -34 c0 -32 1 -33 73
-54 39 -12 110 -34 157 -49 l85 -27 102 -135 c57 -74 103 -142 103 -150 0 -12
-207 -386 -258 -468 -7 -11 -121 -3 -327 23 -33 5 -55 20 -125 86 -134 125
-146 134 -175 121 -33 -15 -32 -31 8 -149 54 -158 108 -246 211 -346 179 -172
449 -246 684 -186 46 11 137 46 205 76 141 64 125 65 269 -20 51 -30 307 -177
568 -328 426 -244 719 -414 759 -438 10 -6 20 -54 32 -156 27 -218 66 -321
172 -452 138 -172 352 -273 577 -273 96 0 312 38 332 58 19 19 5 65 -22 73
-14 4 -63 18 -110 32 -47 14 -104 30 -127 37 -39 10 -52 23 -150 153 -58 78
-106 146 -106 152 0 8 28 60 143 260 9 17 41 72 70 124 l53 93 46 -5 c25 -3
106 -11 180 -18 l133 -12 117 -109 c64 -59 120 -108 124 -108 4 0 18 7 31 15
l24 16 -28 89 c-58 185 -132 307 -250 409 -174 150 -423 214 -647 167 -75 -16
-95 -24 -238 -91 -53 -25 -100 -45 -105 -45 -7 0 -182 99 -660 375 -113 65
-261 151 -330 190 -337 193 -485 278 -488 280 -2 2 -12 70 -22 151 -28 215
-55 292 -145 419 -103 144 -269 255 -435 291 -59 12 -257 18 -305 8z"/>
</g>
</svg>
