<?xml version="1.0" standalone="no"?>
<!DOCTYPE svg PUBLIC "-//W3C//DTD SVG 20010904//EN"
 "http://www.w3.org/TR/2001/REC-SVG-20010904/DTD/svg10.dtd">
<svg version="1.0" xmlns="http://www.w3.org/2000/svg"
 width="519.000000pt" height="497.000000pt" viewBox="0 0 519.000000 497.000000"
 preserveAspectRatio="xMidYMid meet">

<g transform="translate(0.000000,497.000000) scale(0.100000,-0.100000)"
fill="#FFFFFF" stroke="none">
<path d="M3260 4748 c-169 -182 -228 -266 -283 -398 -54 -132 -69 -295 -42
-460 l6 -35 -63 -24 c-35 -13 -87 -37 -115 -53 l-53 -29 0 -1321 c0 -1253 1
-1320 18 -1313 401 163 1132 198 1659 79 120 -27 290 -82 355 -115 l38 -19 0
1303 0 1303 -37 36 c-51 47 -122 94 -189 124 l-55 24 8 38 c15 71 9 312 -10
380 -43 158 -120 278 -299 465 l-103 108 -165 -92 c-91 -50 -166 -92 -167 -93
-1 -1 17 -78 39 -171 39 -161 40 -171 26 -210 l-15 -40 -89 0 -89 0 -14 42
c-14 39 -13 50 22 200 21 87 37 163 37 170 0 9 -316 193 -331 193 -2 0 -42
-42 -89 -92z m180 -212 c0 -12 -13 -71 -29 -133 l-28 -111 58 -134 58 -133
224 -3 223 -2 59 135 58 136 -26 113 c-33 140 -33 150 -2 164 23 11 29 6 98
-73 128 -146 180 -272 181 -435 0 -227 -96 -397 -308 -545 l-86 -60 -2 -790
-3 -790 -195 0 -195 0 4 786 4 786 -115 85 c-154 114 -211 191 -260 348 -32
104 -31 265 1 360 33 93 90 185 166 268 61 66 68 70 91 60 14 -7 24 -20 24
-32z"/>
<path d="M1205 3954 c-350 -36 -593 -114 -728 -235 l-57 -51 0 -1304 0 -1304
38 19 c65 33 235 88 355 115 506 114 1226 85 1618 -63 30 -12 55 -21 57 -21 1
0 2 594 2 1320 l0 1319 -62 35 c-115 63 -304 119 -508 151 -101 16 -612 29
-715 19z"/>
<path d="M1225 1039 c-315 -30 -594 -104 -742 -199 l-63 -39 0 -136 0 -136 28
15 c101 52 312 116 482 145 200 35 328 45 580 45 415 0 749 -55 985 -161 44
-20 91 -36 105 -36 14 0 61 16 105 36 240 108 563 160 990 160 432 0 762 -56
1023 -174 l63 -28 -3 137 -3 137 -77 46 c-131 79 -376 147 -648 181 -157 19
-603 16 -759 -5 -280 -39 -538 -120 -663 -209 l-27 -19 -51 32 c-162 100 -431
174 -740 204 -157 16 -440 17 -585 4z"/>
</g>
</svg>
