<?xml version="1.0" standalone="no"?>
<!DOCTYPE svg PUBLIC "-//W3C//DTD SVG 20010904//EN"
 "http://www.w3.org/TR/2001/REC-SVG-20010904/DTD/svg10.dtd">
<svg version="1.0" xmlns="http://www.w3.org/2000/svg"
 width="3509.000000pt" height="2481.000000pt" viewBox="0 0 3509.000000 2481.000000"
 preserveAspectRatio="xMidYMid meet">

<g transform="translate(0.000000,2481.000000) scale(0.100000,-0.100000)"
fill="#D20A11" stroke="none">
<path d="M2783 19668 c8 -22 494 -1252 572 -1448 214 -543 542 -1373 649
-1645 68 -170 206 -520 307 -777 l184 -468 5301 -2 5302 -3 -146 -372 -145
-373 -3718 0 c-2046 0 -3719 -4 -3719 -9 0 -4 54 -149 121 -322 67 -173 136
-352 153 -399 18 -47 203 -526 411 -1065 207 -539 488 -1266 622 -1615 135
-349 271 -702 303 -785 l57 -150 2035 -5 2035 -5 -104 -270 c-58 -148 -121
-313 -142 -365 l-37 -95 -1743 -3 c-1388 -2 -1742 -5 -1738 -15 11 -28 594
-1493 809 -2032 126 -319 349 -879 495 -1245 146 -366 301 -755 344 -865 l78
-200 7789 -3 c6227 -2 7791 0 7795 10 2 7 204 524 447 1148 414 1062 599 1537
875 2245 62 160 129 331 148 380 109 277 217 558 217 566 0 5 -2103 9 -4995 9
-3054 0 -4995 4 -4995 9 0 5 103 274 229 598 263 676 718 1845 1490 3828 298
764 545 1393 549 1397 5 5 1012 7 2239 6 l2231 -3 -65 -165 c-35 -91 -90 -232
-122 -315 -33 -82 -119 -303 -192 -490 -72 -187 -201 -518 -286 -735 -85 -217
-187 -480 -228 -585 -41 -104 -85 -219 -99 -254 -14 -36 -26 -66 -26 -68 0 -2
1242 -3 2759 -3 2198 0 2760 3 2764 13 2 6 156 399 340 872 184 473 356 914
382 979 26 66 129 331 230 590 101 259 203 523 228 586 173 442 1139 2921
1353 3472 96 246 174 450 174 453 0 3 -6642 5 -14761 5 -11805 0 -14760 -3
-14756 -12z"/>
</g>
</svg>
