<?xml version="1.0" standalone="no"?>
<!DOCTYPE svg PUBLIC "-//W3C//DTD SVG 20010904//EN"
 "http://www.w3.org/TR/2001/REC-SVG-20010904/DTD/svg10.dtd">
<svg version="1.0" xmlns="http://www.w3.org/2000/svg"
 width="528.000000pt" height="591.000000pt" viewBox="0 0 528.000000 591.000000"
 preserveAspectRatio="xMidYMid meet">

<g transform="translate(0.000000,591.000000) scale(0.100000,-0.100000)"
fill="#FFFFFF" stroke="none">
<path d="M2410 5734 c-14 -2 -58 -9 -99 -16 l-73 -11 6 -71 c4 -39 15 -163 26
-276 32 -333 32 -339 16 -310 -7 14 -46 122 -86 240 -40 118 -75 218 -79 222
-14 15 -138 -69 -217 -147 -157 -154 -254 -345 -319 -632 -14 -61 -25 -118
-25 -126 0 -10 31 -18 113 -31 61 -10 198 -31 302 -47 216 -33 496 -78 510
-81 6 -2 -242 -5 -550 -8 l-560 -5 -3 -257 -2 -258 172 -2 173 -3 2 -65 c8
-224 32 -439 64 -585 84 -380 245 -619 494 -738 88 -42 251 -77 363 -77 118 0
274 31 367 73 346 156 517 526 555 1202 5 94 10 176 10 183 0 9 45 12 190 12
l190 0 -2 258 -3 257 -85 5 -85 5 -7 79 c-29 315 -151 614 -327 800 -95 99
-261 210 -282 189 -5 -5 -38 -94 -73 -198 -94 -275 -105 -304 -106 -275 0 29
24 298 45 514 8 82 14 150 13 151 -2 2 -32 8 -68 15 -62 12 -507 23 -560 14z"/>
<path d="M1875 2395 c-26 -8 -40 -18 -39 -28 3 -27 246 -477 258 -477 6 0 50
31 97 68 47 37 131 102 188 145 56 43 99 81 97 86 -3 4 -31 11 -63 14 -116 12
-327 101 -424 177 -40 33 -54 34 -114 15z"/>
<path d="M3275 2369 c-118 -81 -254 -137 -394 -163 l-64 -12 182 -149 c100
-83 187 -150 193 -150 7 0 43 54 81 120 38 66 98 169 133 228 35 59 64 112 64
117 0 5 -26 17 -57 26 -32 9 -62 18 -68 20 -5 2 -37 -14 -70 -37z"/>
<path d="M1465 2273 c-44 -14 -148 -46 -230 -72 -219 -70 -319 -121 -480 -246
-138 -108 -256 -250 -340 -408 -108 -203 -133 -311 -199 -842 -8 -66 -27 -210
-41 -320 -14 -110 -25 -206 -25 -212 0 -10 243 -13 1190 -13 l1190 0 0 855 c0
470 -3 855 -6 855 -3 0 -96 -69 -207 -153 -111 -85 -227 -172 -257 -195 -42
-32 -57 -39 -66 -29 -6 6 -91 163 -189 347 -226 426 -244 460 -253 459 -4 0
-43 -12 -87 -26z"/>
<path d="M3585 2018 c-162 -283 -306 -531 -311 -537 -3 -3 -73 45 -84 59 -10
12 -390 320 -395 320 -3 0 -5 -382 -5 -850 l0 -850 1165 0 1165 0 0 31 c0 17
-14 128 -30 247 -17 119 -42 300 -55 402 -54 400 -75 483 -165 665 -151 305
-411 539 -730 658 -84 31 -372 117 -391 117 -8 -1 -79 -114 -164 -262z m550
-993 l0 -130 -450 0 -450 0 -3 133 -3 132 453 -2 453 -3 0 -130z"/>
</g>
</svg>
