<?xml version="1.0" standalone="no"?>
<!DOCTYPE svg PUBLIC "-//W3C//DTD SVG 20010904//EN"
 "http://www.w3.org/TR/2001/REC-SVG-20010904/DTD/svg10.dtd">
<svg version="1.0" xmlns="http://www.w3.org/2000/svg"
 width="630.000000pt" height="573.000000pt" viewBox="0 0 630.000000 573.000000"
 preserveAspectRatio="xMidYMid meet">

<g transform="translate(0.000000,573.000000) scale(0.100000,-0.100000)"
fill="#FFFFFF" stroke="none">
<path d="M3445 5504 c-126 -24 -344 -88 -415 -122 l-35 -17 -3 -105 -3 -105
-67 -37 c-37 -21 -79 -45 -93 -54 -26 -17 -28 -16 -112 35 -46 28 -88 51 -92
51 -14 0 -149 -114 -230 -195 -82 -82 -205 -227 -205 -242 0 -4 23 -44 50 -88
28 -44 50 -83 50 -87 0 -4 -17 -34 -38 -67 -22 -32 -45 -73 -52 -90 l-12 -31
-108 0 -107 0 -37 -97 c-49 -131 -73 -217 -96 -347 -26 -143 -27 -136 18 -136
61 0 227 -28 305 -51 105 -31 211 -77 304 -130 45 -26 84 -44 87 -41 4 3 6 25
6 49 0 68 28 227 57 316 89 285 288 536 551 695 82 50 248 117 352 142 142 35
368 39 509 10 248 -51 444 -151 622 -318 176 -165 290 -359 356 -606 25 -93
27 -116 27 -296 0 -181 -2 -202 -27 -295 -30 -113 -56 -183 -94 -259 -119
-235 -353 -464 -581 -568 -176 -80 -296 -108 -492 -115 -123 -5 -163 -2 -258
16 -120 23 -232 61 -331 110 -33 17 -62 31 -64 31 -2 0 -7 -69 -10 -152 -8
-204 -50 -377 -131 -536 -14 -28 -26 -55 -26 -60 0 -10 100 -50 215 -86 80
-25 346 -78 354 -71 2 3 24 42 50 87 l46 83 115 3 115 3 50 -90 c41 -74 53
-90 70 -86 11 2 72 14 135 25 130 24 202 44 343 96 l97 37 0 107 0 107 28 12
c15 7 57 30 94 53 l67 40 86 -51 c48 -28 89 -51 92 -51 9 0 140 108 209 173
67 62 211 228 221 254 3 7 -18 51 -46 98 l-52 84 51 87 c27 49 50 92 50 96 0
4 49 8 108 8 l108 0 32 78 c56 138 94 288 127 494 4 25 -2 30 -83 74 -48 26
-88 48 -90 50 -4 3 -4 225 0 228 2 2 42 25 90 51 79 44 86 51 83 74 -32 202
-72 355 -127 494 l-32 77 -108 0 c-59 0 -108 4 -108 8 0 4 -23 47 -50 96 l-51
87 52 84 c28 47 49 91 46 98 -10 26 -154 192 -221 254 -74 69 -200 173 -210
173 -4 0 -45 -23 -91 -50 l-83 -51 -88 51 c-49 27 -92 50 -96 50 -4 0 -8 49
-8 108 l0 108 -77 31 c-143 57 -305 99 -484 126 l-37 5 -48 -89 c-27 -49 -52
-89 -56 -89 -61 -4 -210 0 -217 5 -6 3 -31 44 -57 90 -25 47 -49 85 -52 84 -4
0 -65 -12 -137 -25z"/>
<path d="M3702 4509 c-209 -19 -406 -108 -562 -256 -128 -120 -214 -254 -265
-408 -37 -111 -45 -171 -46 -311 0 -177 17 -238 98 -360 36 -55 88 -145 115
-200 54 -114 106 -171 224 -247 97 -62 155 -90 259 -123 85 -27 100 -29 275
-29 176 0 189 1 275 29 314 99 549 327 653 633 60 173 60 433 0 606 -65 192
-192 366 -351 483 -128 95 -309 167 -447 179 -41 3 -88 7 -105 9 -16 2 -72 -1
-123 -5z m223 -434 c246 -63 425 -289 425 -535 0 -190 -117 -387 -285 -479
-74 -40 -189 -71 -265 -71 -249 0 -483 192 -535 437 -18 86 -18 140 0 226 45
212 234 395 445 430 58 10 160 6 215 -8z"/>
<path d="M1660 3504 c-14 -3 -63 -12 -110 -21 -388 -73 -721 -367 -852 -753
-180 -532 63 -1121 567 -1375 757 -381 1648 168 1648 1015 0 538 -366 991
-898 1111 -86 20 -299 33 -355 23z m365 -288 c306 -92 535 -334 613 -651 25
-103 22 -314 -7 -419 -73 -271 -267 -489 -528 -595 -118 -48 -166 -56 -338
-55 -147 0 -167 3 -245 28 -345 113 -581 398 -619 749 -50 449 248 863 694
961 111 25 315 16 430 -18z"/>
<path d="M1641 2972 c-17 -5 -46 -42 -93 -117 -37 -60 -68 -112 -68 -115 0 -3
39 -77 86 -164 138 -258 261 -443 381 -574 l58 -64 120 17 c138 19 140 20 200
140 49 97 65 164 65 276 0 165 -56 305 -170 420 -79 80 -134 117 -225 155 -63
25 -83 28 -200 31 -71 1 -141 -1 -154 -5z"/>
<path d="M2685 1299 c-38 -33 -107 -84 -152 -112 -46 -29 -83 -56 -83 -60 0
-6 651 -877 679 -910 9 -9 316 220 316 236 0 17 -668 906 -680 906 -5 0 -41
-27 -80 -60z"/>
</g>
</svg>
